STARTFONT 2.1
COMMENT
COMMENT Converted from OpenType font "DSnetChild.ttf" by "otf2bdf 3.0".
COMMENT
FONT -FreeType-DSnet Child-Medium-R-Normal--17-120-100-100-P-59-ISO10646-1
SIZE 12 100 100
FONTBOUNDINGBOX 16 17 -2 -3
STARTPROPERTIES 19
FOUNDRY "FreeType"
FAMILY_NAME "DSnet Child"
WEIGHT_NAME "Medium"
SLANT "R"
SETWIDTH_NAME "Normal"
ADD_STYLE_NAME ""
PIXEL_SIZE 17
POINT_SIZE 120
RESOLUTION_X 100
RESOLUTION_Y 100
SPACING "P"
AVERAGE_WIDTH 59
CHARSET_REGISTRY "ISO10646"
CHARSET_ENCODING "1"
FONT_ASCENT 14
FONT_DESCENT 3
COPYRIGHT "Typeface © (your company). 2012. All Rights Reserved"
_OTF_FONTFILE "DSnetChild.ttf"
_OTF_PSNAME "DSnetChild"
ENDPROPERTIES
CHARS 101
STARTCHAR 0020
ENCODING 32
SWIDTH 360 0
DWIDTH 6 0
BBX 0 0 0 0
BITMAP
ENDCHAR
STARTCHAR 0021
ENCODING 33
SWIDTH 360 0
DWIDTH 6 0
BBX 1 14 1 0
BITMAP
80
80
80
80
80
80
80
80
80
80
80
00
00
80
ENDCHAR
STARTCHAR 0022
ENCODING 34
SWIDTH 360 0
DWIDTH 6 0
BBX 2 4 0 10
BITMAP
C0
C0
C0
C0
ENDCHAR
STARTCHAR 0023
ENCODING 35
SWIDTH 660 0
DWIDTH 11 0
BBX 6 10 0 0
BITMAP
40
50
50
BC
50
50
FC
90
90
10
ENDCHAR
STARTCHAR 0024
ENCODING 36
SWIDTH 480 0
DWIDTH 8 0
BBX 5 12 1 -1
BITMAP
40
F0
C8
C0
C0
40
60
50
D0
D0
60
40
ENDCHAR
STARTCHAR 0025
ENCODING 37
SWIDTH 780 0
DWIDTH 13 0
BBX 6 10 0 0
BITMAP
04
04
48
50
14
2C
20
40
80
80
ENDCHAR
STARTCHAR 0026
ENCODING 38
SWIDTH 840 0
DWIDTH 14 0
BBX 8 12 0 0
BITMAP
20
78
A4
A0
80
60
80
80
81
92
7C
08
ENDCHAR
STARTCHAR 0027
ENCODING 39
SWIDTH 180 0
DWIDTH 3 0
BBX 1 3 1 9
BITMAP
80
80
80
ENDCHAR
STARTCHAR 0028
ENCODING 40
SWIDTH 360 0
DWIDTH 6 0
BBX 3 10 0 0
BITMAP
60
40
80
80
80
80
80
80
80
C0
ENDCHAR
STARTCHAR 0029
ENCODING 41
SWIDTH 360 0
DWIDTH 6 0
BBX 3 10 0 0
BITMAP
80
40
40
20
20
20
20
20
20
40
ENDCHAR
STARTCHAR 002A
ENCODING 42
SWIDTH 540 0
DWIDTH 9 0
BBX 5 6 0 8
BITMAP
20
38
F0
20
F0
20
ENDCHAR
STARTCHAR 002B
ENCODING 43
SWIDTH 480 0
DWIDTH 8 0
BBX 7 9 0 1
BITMAP
10
10
10
10
FE
20
20
20
20
ENDCHAR
STARTCHAR 002C
ENCODING 44
SWIDTH 300 0
DWIDTH 5 0
BBX 2 6 1 -3
BITMAP
C0
40
40
40
40
80
ENDCHAR
STARTCHAR 002D
ENCODING 45
SWIDTH 360 0
DWIDTH 6 0
BBX 6 1 0 4
BITMAP
FC
ENDCHAR
STARTCHAR 002E
ENCODING 46
SWIDTH 300 0
DWIDTH 5 0
BBX 1 1 0 0
BITMAP
80
ENDCHAR
STARTCHAR 002F
ENCODING 47
SWIDTH 300 0
DWIDTH 5 0
BBX 7 11 0 0
BITMAP
02
04
08
08
10
10
20
40
40
80
80
ENDCHAR
STARTCHAR 0030
ENCODING 48
SWIDTH 480 0
DWIDTH 8 0
BBX 5 9 0 0
BITMAP
30
C8
88
88
88
88
88
90
F0
ENDCHAR
STARTCHAR 0031
ENCODING 49
SWIDTH 480 0
DWIDTH 8 0
BBX 1 9 2 0
BITMAP
80
80
80
80
80
80
80
80
80
ENDCHAR
STARTCHAR 0032
ENCODING 50
SWIDTH 480 0
DWIDTH 8 0
BBX 7 9 0 0
BITMAP
30
C8
88
08
10
10
20
C0
FE
ENDCHAR
STARTCHAR 0033
ENCODING 51
SWIDTH 480 0
DWIDTH 8 0
BBX 6 9 0 0
BITMAP
20
D8
08
0C
08
38
08
0C
F8
ENDCHAR
STARTCHAR 0034
ENCODING 52
SWIDTH 480 0
DWIDTH 8 0
BBX 6 9 0 0
BITMAP
90
90
90
90
FC
10
10
10
10
ENDCHAR
STARTCHAR 0035
ENCODING 53
SWIDTH 480 0
DWIDTH 8 0
BBX 6 8 0 0
BITMAP
F8
80
80
80
78
04
08
F8
ENDCHAR
STARTCHAR 0036
ENCODING 54
SWIDTH 480 0
DWIDTH 8 0
BBX 6 9 0 0
BITMAP
10
28
40
80
80
80
78
84
7C
ENDCHAR
STARTCHAR 0037
ENCODING 55
SWIDTH 480 0
DWIDTH 8 0
BBX 6 9 0 0
BITMAP
E0
1C
08
08
10
10
20
20
20
ENDCHAR
STARTCHAR 0038
ENCODING 56
SWIDTH 480 0
DWIDTH 8 0
BBX 5 9 0 0
BITMAP
F0
88
88
48
30
50
88
88
F8
ENDCHAR
STARTCHAR 0039
ENCODING 57
SWIDTH 480 0
DWIDTH 8 0
BBX 5 9 0 0
BITMAP
70
88
88
90
70
10
10
10
10
ENDCHAR
STARTCHAR 003A
ENCODING 58
SWIDTH 300 0
DWIDTH 5 0
BBX 2 5 0 0
BITMAP
80
00
00
80
C0
ENDCHAR
STARTCHAR 003B
ENCODING 59
SWIDTH 300 0
DWIDTH 5 0
BBX 2 5 1 -1
BITMAP
C0
00
40
40
80
ENDCHAR
STARTCHAR 003C
ENCODING 60
SWIDTH 480 0
DWIDTH 8 0
BBX 5 6 0 0
BITMAP
18
60
80
40
20
18
ENDCHAR
STARTCHAR 003D
ENCODING 61
SWIDTH 480 0
DWIDTH 8 0
BBX 5 3 0 3
BITMAP
F8
00
F8
ENDCHAR
STARTCHAR 003E
ENCODING 62
SWIDTH 480 0
DWIDTH 8 0
BBX 5 6 0 0
BITMAP
C0
30
08
10
60
80
ENDCHAR
STARTCHAR 003F
ENCODING 63
SWIDTH 360 0
DWIDTH 6 0
BBX 5 12 0 0
BITMAP
F0
88
08
08
10
10
20
40
40
00
00
60
ENDCHAR
STARTCHAR 0040
ENCODING 64
SWIDTH 1020 0
DWIDTH 17 0
BBX 5 6 1 1
BITMAP
F0
E8
B8
A8
F0
F0
ENDCHAR
STARTCHAR 0041
ENCODING 65
SWIDTH 780 0
DWIDTH 13 0
BBX 8 13 0 0
BITMAP
04
0C
1C
14
14
22
22
5F
42
82
81
81
01
ENDCHAR
STARTCHAR 0042
ENCODING 66
SWIDTH 600 0
DWIDTH 10 0
BBX 6 12 1 0
BITMAP
F0
88
88
88
90
A0
D8
84
84
84
88
F0
ENDCHAR
STARTCHAR 0043
ENCODING 67
SWIDTH 720 0
DWIDTH 12 0
BBX 7 12 1 0
BITMAP
0E
32
42
C0
80
80
80
80
80
82
82
7C
ENDCHAR
STARTCHAR 0044
ENCODING 68
SWIDTH 780 0
DWIDTH 13 0
BBX 8 12 1 0
BITMAP
98
E6
42
41
41
41
41
41
41
42
44
F8
ENDCHAR
STARTCHAR 0045
ENCODING 69
SWIDTH 600 0
DWIDTH 10 0
BBX 6 12 0 0
BITMAP
FC
80
80
80
80
80
F0
80
80
80
80
FC
ENDCHAR
STARTCHAR 0046
ENCODING 70
SWIDTH 540 0
DWIDTH 9 0
BBX 7 12 0 0
BITMAP
FE
80
80
80
80
F8
80
80
80
80
80
80
ENDCHAR
STARTCHAR 0047
ENCODING 71
SWIDTH 720 0
DWIDTH 12 0
BBX 9 12 0 0
BITMAP
1800
2400
4000
8000
8000
8780
8200
8100
8100
8100
4200
3C00
ENDCHAR
STARTCHAR 0048
ENCODING 72
SWIDTH 780 0
DWIDTH 13 0
BBX 6 12 2 0
BITMAP
88
88
88
88
88
7C
88
88
84
84
84
80
ENDCHAR
STARTCHAR 0049
ENCODING 73
SWIDTH 300 0
DWIDTH 5 0
BBX 6 12 -2 0
BITMAP
F0
40
20
20
20
20
20
20
20
20
20
FC
ENDCHAR
STARTCHAR 004A
ENCODING 74
SWIDTH 300 0
DWIDTH 5 0
BBX 6 12 -1 0
BITMAP
3C
10
10
10
08
08
08
88
88
90
90
E0
ENDCHAR
STARTCHAR 004B
ENCODING 75
SWIDTH 660 0
DWIDTH 11 0
BBX 8 12 1 0
BITMAP
80
88
90
A0
C0
40
60
50
48
44
42
43
ENDCHAR
STARTCHAR 004C
ENCODING 76
SWIDTH 540 0
DWIDTH 9 0
BBX 6 13 1 0
BITMAP
80
80
80
80
80
80
80
80
80
80
80
80
FC
ENDCHAR
STARTCHAR 004D
ENCODING 77
SWIDTH 900 0
DWIDTH 15 0
BBX 10 13 0 0
BITMAP
8080
8180
C180
A240
A240
9440
9440
8C40
8040
8040
8040
8040
8040
ENDCHAR
STARTCHAR 004E
ENCODING 78
SWIDTH 780 0
DWIDTH 13 0
BBX 6 12 0 0
BITMAP
84
84
C4
C4
A4
A4
94
94
8C
8C
84
84
ENDCHAR
STARTCHAR 004F
ENCODING 79
SWIDTH 780 0
DWIDTH 13 0
BBX 7 12 0 0
BITMAP
18
68
84
84
82
82
82
82
82
84
84
78
ENDCHAR
STARTCHAR 0050
ENCODING 80
SWIDTH 540 0
DWIDTH 9 0
BBX 6 12 0 0
BITMAP
70
88
84
84
84
8C
70
80
80
80
80
80
ENDCHAR
STARTCHAR 0051
ENCODING 81
SWIDTH 780 0
DWIDTH 13 0
BBX 9 12 0 0
BITMAP
3000
5800
8400
8200
8200
8100
8100
8100
8500
8600
4200
3D80
ENDCHAR
STARTCHAR 0052
ENCODING 82
SWIDTH 660 0
DWIDTH 11 0
BBX 9 12 -1 0
BITMAP
F000
8800
8800
8800
8800
9000
6000
7000
4800
4400
4200
4180
ENDCHAR
STARTCHAR 0053
ENCODING 83
SWIDTH 540 0
DWIDTH 9 0
BBX 7 12 0 0
BITMAP
30
4C
44
40
40
20
10
0C
04
82
84
78
ENDCHAR
STARTCHAR 0054
ENCODING 84
SWIDTH 660 0
DWIDTH 11 0
BBX 8 12 0 0
BITMAP
FF
10
10
10
08
08
08
08
08
08
08
08
ENDCHAR
STARTCHAR 0055
ENCODING 85
SWIDTH 720 0
DWIDTH 12 0
BBX 6 12 0 0
BITMAP
84
84
84
84
84
84
84
84
84
84
4C
34
ENDCHAR
STARTCHAR 0056
ENCODING 86
SWIDTH 720 0
DWIDTH 12 0
BBX 7 12 0 0
BITMAP
82
82
82
84
84
88
48
50
50
50
20
20
ENDCHAR
STARTCHAR 0057
ENCODING 87
SWIDTH 1020 0
DWIDTH 17 0
BBX 12 12 2 0
BITMAP
8010
8020
8020
8020
8440
8C40
9480
9480
5500
6500
2200
4200
ENDCHAR
STARTCHAR 0058
ENCODING 88
SWIDTH 660 0
DWIDTH 11 0
BBX 8 12 0 0
BITMAP
80
82
44
24
28
10
18
28
24
42
42
81
ENDCHAR
STARTCHAR 0059
ENCODING 89
SWIDTH 600 0
DWIDTH 10 0
BBX 7 12 0 0
BITMAP
82
84
88
50
50
20
20
20
20
20
20
20
ENDCHAR
STARTCHAR 005A
ENCODING 90
SWIDTH 540 0
DWIDTH 9 0
BBX 8 12 0 0
BITMAP
FE
02
04
04
08
10
10
20
40
40
80
FF
ENDCHAR
STARTCHAR 005B
ENCODING 91
SWIDTH 360 0
DWIDTH 6 0
BBX 3 11 0 0
BITMAP
E0
80
80
80
80
80
80
80
80
80
C0
ENDCHAR
STARTCHAR 005C
ENCODING 92
SWIDTH 300 0
DWIDTH 5 0
BBX 8 13 0 0
BITMAP
80
80
40
20
20
10
10
08
04
04
02
01
01
ENDCHAR
STARTCHAR 005D
ENCODING 93
SWIDTH 360 0
DWIDTH 6 0
BBX 3 11 0 0
BITMAP
C0
40
40
40
40
40
40
20
20
20
E0
ENDCHAR
STARTCHAR 005F
ENCODING 95
SWIDTH 540 0
DWIDTH 9 0
BBX 9 1 0 -2
BITMAP
FF80
ENDCHAR
STARTCHAR 0060
ENCODING 96
SWIDTH 540 0
DWIDTH 9 0
BBX 2 3 3 9
BITMAP
80
80
40
ENDCHAR
STARTCHAR 0061
ENCODING 97
SWIDTH 480 0
DWIDTH 8 0
BBX 6 8 0 0
BITMAP
78
84
84
84
88
88
88
7C
ENDCHAR
STARTCHAR 0062
ENCODING 98
SWIDTH 480 0
DWIDTH 8 0
BBX 6 11 1 0
BITMAP
80
80
80
80
80
A0
D8
84
84
C4
F8
ENDCHAR
STARTCHAR 0063
ENCODING 99
SWIDTH 480 0
DWIDTH 8 0
BBX 7 7 0 0
BITMAP
38
C0
80
80
80
82
7C
ENDCHAR
STARTCHAR 0064
ENCODING 100
SWIDTH 540 0
DWIDTH 9 0
BBX 7 11 0 0
BITMAP
02
04
04
04
7C
84
84
84
84
9C
64
ENDCHAR
STARTCHAR 0065
ENCODING 101
SWIDTH 480 0
DWIDTH 8 0
BBX 7 8 -1 0
BITMAP
3E
42
44
B8
80
80
86
78
ENDCHAR
STARTCHAR 0066
ENCODING 102
SWIDTH 300 0
DWIDTH 5 0
BBX 6 11 -2 0
BITMAP
1C
24
20
40
40
40
FC
20
20
20
20
ENDCHAR
STARTCHAR 0067
ENCODING 103
SWIDTH 420 0
DWIDTH 7 0
BBX 6 11 0 -3
BITMAP
78
84
84
84
84
84
7C
84
88
88
F0
ENDCHAR
STARTCHAR 0068
ENCODING 104
SWIDTH 540 0
DWIDTH 9 0
BBX 5 13 1 0
BITMAP
80
80
80
80
80
F0
90
88
88
88
88
88
90
ENDCHAR
STARTCHAR 0069
ENCODING 105
SWIDTH 240 0
DWIDTH 4 0
BBX 1 10 0 0
BITMAP
80
00
00
80
80
80
80
80
80
80
ENDCHAR
STARTCHAR 006A
ENCODING 106
SWIDTH 240 0
DWIDTH 4 0
BBX 4 13 -2 -3
BITMAP
10
00
00
10
10
10
10
10
10
10
90
90
F0
ENDCHAR
STARTCHAR 006B
ENCODING 107
SWIDTH 540 0
DWIDTH 9 0
BBX 7 11 0 0
BITMAP
80
80
80
90
E0
80
E0
90
8C
82
80
ENDCHAR
STARTCHAR 006C
ENCODING 108
SWIDTH 240 0
DWIDTH 4 0
BBX 1 12 0 0
BITMAP
80
80
80
80
80
80
80
80
80
80
80
80
ENDCHAR
STARTCHAR 006D
ENCODING 109
SWIDTH 780 0
DWIDTH 13 0
BBX 9 9 1 -1
BITMAP
E000
9700
9880
8880
8880
9080
9080
8080
0080
ENDCHAR
STARTCHAR 006E
ENCODING 110
SWIDTH 540 0
DWIDTH 9 0
BBX 6 9 0 0
BITMAP
98
E4
C4
84
84
84
84
84
84
ENDCHAR
STARTCHAR 006F
ENCODING 111
SWIDTH 480 0
DWIDTH 8 0
BBX 6 7 0 0
BITMAP
30
C8
84
84
84
88
70
ENDCHAR
STARTCHAR 0070
ENCODING 112
SWIDTH 480 0
DWIDTH 8 0
BBX 5 11 0 -3
BITMAP
F8
88
88
88
88
90
E0
80
80
80
80
ENDCHAR
STARTCHAR 0071
ENCODING 113
SWIDTH 540 0
DWIDTH 9 0
BBX 7 10 0 -3
BITMAP
78
88
90
90
90
90
70
12
14
1C
ENDCHAR
STARTCHAR 0072
ENCODING 114
SWIDTH 360 0
DWIDTH 6 0
BBX 5 8 0 0
BITMAP
F0
90
88
80
80
80
80
80
ENDCHAR
STARTCHAR 0073
ENCODING 115
SWIDTH 360 0
DWIDTH 6 0
BBX 5 8 -1 0
BITMAP
70
88
80
40
30
90
90
60
ENDCHAR
STARTCHAR 0074
ENCODING 116
SWIDTH 360 0
DWIDTH 6 0
BBX 5 11 0 0
BITMAP
20
20
20
20
F8
20
20
20
20
20
20
ENDCHAR
STARTCHAR 0075
ENCODING 117
SWIDTH 540 0
DWIDTH 9 0
BBX 6 8 0 0
BITMAP
88
84
84
84
88
88
98
64
ENDCHAR
STARTCHAR 0076
ENCODING 118
SWIDTH 480 0
DWIDTH 8 0
BBX 6 7 0 0
BITMAP
84
88
90
90
60
60
20
ENDCHAR
STARTCHAR 0077
ENCODING 119
SWIDTH 720 0
DWIDTH 12 0
BBX 10 8 0 0
BITMAP
8040
8840
9880
9480
A500
6500
2500
0200
ENDCHAR
STARTCHAR 0078
ENCODING 120
SWIDTH 480 0
DWIDTH 8 0
BBX 5 8 0 0
BITMAP
48
50
50
20
60
50
90
88
ENDCHAR
STARTCHAR 0079
ENCODING 121
SWIDTH 420 0
DWIDTH 7 0
BBX 5 10 0 -3
BITMAP
88
88
50
30
10
20
20
20
40
40
ENDCHAR
STARTCHAR 007A
ENCODING 122
SWIDTH 360 0
DWIDTH 6 0
BBX 6 7 0 0
BITMAP
F8
10
10
20
40
40
FC
ENDCHAR
STARTCHAR 007B
ENCODING 123
SWIDTH 480 0
DWIDTH 8 0
BBX 4 13 0 0
BITMAP
E0
80
80
80
80
40
80
40
80
80
80
80
70
ENDCHAR
STARTCHAR 007C
ENCODING 124
SWIDTH 480 0
DWIDTH 8 0
BBX 1 10 0 0
BITMAP
80
80
80
80
80
80
80
80
80
80
ENDCHAR
STARTCHAR 007D
ENCODING 125
SWIDTH 480 0
DWIDTH 8 0
BBX 4 13 0 0
BITMAP
60
10
10
10
20
40
20
20
20
20
20
20
C0
ENDCHAR
STARTCHAR 007E
ENCODING 126
SWIDTH 480 0
DWIDTH 8 0
BBX 8 3 0 4
BITMAP
40
A0
1F
ENDCHAR
STARTCHAR 00A0
ENCODING 160
SWIDTH 360 0
DWIDTH 6 0
BBX 0 0 0 0
BITMAP
ENDCHAR
STARTCHAR 00A2
ENCODING 162
SWIDTH 540 0
DWIDTH 9 0
BBX 8 12 0 0
BITMAP
10
1F
71
90
90
90
90
91
91
52
3C
10
ENDCHAR
STARTCHAR 00AD
ENCODING 173
SWIDTH 360 0
DWIDTH 6 0
BBX 6 1 0 4
BITMAP
FC
ENDCHAR
STARTCHAR 00B0
ENCODING 176
SWIDTH 360 0
DWIDTH 6 0
BBX 3 3 2 9
BITMAP
40
A0
E0
ENDCHAR
STARTCHAR 00B4
ENCODING 180
SWIDTH 540 0
DWIDTH 9 0
BBX 3 2 4 11
BITMAP
60
80
ENDCHAR
STARTCHAR 037E
ENCODING 894
SWIDTH 300 0
DWIDTH 5 0
BBX 2 5 1 -1
BITMAP
C0
00
40
40
80
ENDCHAR
STARTCHAR 2219
ENCODING 8729
SWIDTH 240 0
DWIDTH 4 0
BBX 2 2 1 5
BITMAP
C0
C0
ENDCHAR
ENDFONT
